<svg xmlns="http://www.w3.org/2000/svg" xmlns:xlink="http://www.w3.org/1999/xlink" viewBox="416 -366 147.554 62">
  <defs>
    <style>
      .cls-1 {
        fill: url(#linear-gradient);
      }

      .cls-2 {
        fill: url(#linear-gradient-2);
      }

      .cls-3 {
        fill: url(#linear-gradient-3);
      }

      .cls-4 {
        fill: url(#linear-gradient-4);
      }

      .cls-5 {
        fill: url(#linear-gradient-5);
      }

      .cls-6 {
        fill: url(#linear-gradient-6);
      }

      .cls-7 {
        fill: url(#linear-gradient-7);
      }

      .cls-8 {
        fill: url(#linear-gradient-9);
      }

      .cls-9 {
        fill: url(#linear-gradient-10);
      }

      .cls-10 {
        fill: url(#linear-gradient-11);
      }

      .cls-11 {
        fill: url(#linear-gradient-13);
      }

      .cls-12 {
        fill: url(#linear-gradient-14);
      }

      .cls-13 {
        fill: url(#linear-gradient-15);
      }

      .cls-14 {
        fill: url(#linear-gradient-16);
      }
    </style>
    <linearGradient id="linear-gradient" y1="0.498" x2="1" y2="0.498" gradientUnits="objectBoundingBox">
      <stop offset="0" stop-color="#3575b8"/>
      <stop offset="0.2" stop-color="#3575b8"/>
      <stop offset="0.267" stop-color="#436eaf"/>
      <stop offset="0.393" stop-color="#685d96"/>
      <stop offset="0.566" stop-color="#a4416e"/>
      <stop offset="0.777" stop-color="#f51a38"/>
      <stop offset="0.8" stop-color="#ff1632"/>
      <stop offset="1" stop-color="#ff1632"/>
    </linearGradient>
    <linearGradient id="linear-gradient-2" x1="0" y1="0.5" x2="1" y2="0.5" xlink:href="#linear-gradient"/>
    <linearGradient id="linear-gradient-3" x1="0" y1="0.5" x2="0.999" y2="0.5" xlink:href="#linear-gradient"/>
    <linearGradient id="linear-gradient-4" x1="0" y1="0.5" x2="1.001" y2="0.5" xlink:href="#linear-gradient"/>
    <linearGradient id="linear-gradient-5" x1="0" y1="0.5" x2="1" y2="0.5" xlink:href="#linear-gradient"/>
    <linearGradient id="linear-gradient-6" x1="-0.001" y1="0.5" x2="1" y2="0.5" xlink:href="#linear-gradient"/>
    <linearGradient id="linear-gradient-7" x1="0" y1="0.5" x2="0.998" y2="0.5" xlink:href="#linear-gradient"/>
    <linearGradient id="linear-gradient-9" x1="0.001" y1="0.499" x2="1.001" y2="0.499" xlink:href="#linear-gradient"/>
    <linearGradient id="linear-gradient-10" x1="-0.011" y1="0.5" x2="0.987" y2="0.5" xlink:href="#linear-gradient"/>
    <linearGradient id="linear-gradient-11" x1="0" y1="0.5" x2="1" y2="0.5" xlink:href="#linear-gradient"/>
    <linearGradient id="linear-gradient-13" x1="0" y1="0.5" x2="0.999" y2="0.5" xlink:href="#linear-gradient"/>
    <linearGradient id="linear-gradient-14" x1="0" y1="0.5" x2="0.997" y2="0.5" xlink:href="#linear-gradient"/>
    <linearGradient id="linear-gradient-15" x1="0.001" y1="0.5" x2="1" y2="0.5" xlink:href="#linear-gradient"/>
    <linearGradient id="linear-gradient-16" x1="0" y1="0.5" x2="1.001" y2="0.5" xlink:href="#linear-gradient"/>
  </defs>
  <g id="Symbol_5_3" data-name="Symbol 5 – 3" transform="translate(-2811 -1882)">
    <rect id="Rectangle_1316" data-name="Rectangle 1316" class="cls-1" width="147.313" height="2.733" transform="translate(3227.241 1562.284)"/>
    <path id="Path_364" data-name="Path 364" class="cls-2" d="M146.885,31.734V30.91h-1.909V29.865h-1.367v1.688h-1.085v3.175h-1.146V31.714l.482-.824h.362v-.5H141.6v-.7h-.322V28.458h-.241v.3h-.221v.181h-.462V27.313h.543c0-.623-1.266-1.125-2.834-1.125h0V23.936a.08.08,0,1,0-.161,0V24.3a.831.831,0,0,1-.6.08,3.657,3.657,0,0,0-.784-.06l.161,1.266s.161.1.563-.141a.61.61,0,0,1,.643-.02v.784c-1.487.04-2.673.523-2.673,1.125h.543v1.628H134.4V27.272a.06.06,0,1,0-.121,0v.261a.662.662,0,0,1-.442.06,2.328,2.328,0,0,0-.563-.04l.121.924s.121.08.422-.1a.514.514,0,0,1,.482-.02v.6h-1.568V29.7h-1.125v-.362h-.261V29h-.261v.723h-2.211v-.362h-.3v-.342h-.261v.342h-.3v.362h-1V28.619h-.221v-.683h-.322v-.824c.3-.04.523-.2.523-.362,0-.181-.221-.322-.523-.362v-.342a.221.221,0,1,0-.442,0v.3c-.3.04-.523.2-.523.362,0,.181.221.322.523.362V27.9h-.342a3.8,3.8,0,0,0-7.476,0h-.342v-.824c.3-.04.523-.2.523-.362,0-.181-.221-.322-.523-.362v-.3a.221.221,0,1,0-.442,0v.3c-.3.04-.523.2-.523.362,0,.181.221.322.523.362V27.9H117.1v.683h-.221v1.105h-1v-.362h-.362v-.342h-.261v.342h-.3v.362H112.74v-.7h-.261v.342h-.261v.362h-1.125v-.744h-1.568v-.6a.457.457,0,0,1,.482.02c.3.181.422.1.422.1l.121-.924a2.328,2.328,0,0,0-.563.04.662.662,0,0,1-.442-.06v-.261a.06.06,0,1,0-.121,0v1.688h-1.387V27.313h.543c0-.6-1.186-1.105-2.673-1.125V25.4a.61.61,0,0,1,.643.02c.4.241.563.141.563.141l.161-1.266a3.657,3.657,0,0,0-.784.06.952.952,0,0,1-.6-.08v-.362a.08.08,0,0,0-.161,0v2.251c-1.568,0-2.834.5-2.834,1.125h.543V28.92h-.462V28.74h-.221v-.3h-.221v1.085h-.4v-.6H100.9V29.6H98.029V30.93h.543v3.015H97.526V32.538H96.7V31.493H91.2v1.045h-.965v.683h-.824V31.352H87.035V33.4H85.428l-.281-13.124h.583v-.663h-.683v-.543a2.781,2.781,0,0,0,0-5.225V12.823h.342V12.4h-.7v-.884h-.121a.474.474,0,0,0-.3-.422V.041A.137.137,0,0,0,84.121-.1h-.08A.137.137,0,0,0,83.9.041V11.094a.493.493,0,0,0-.3.422h-.121V12.4h-.7v.422h.342v1.025a2.781,2.781,0,0,0,0,5.225v.543h-.683v.663h.583l-.221,11.154H81.569V29.061H76.324V27.694h-.9V29.2H73.912V39.351h-.724V36.336h-.482v-4.22h-.121l.362-.924h.784v-.543h-.744V29.182h.623l1.266-1.97v-.724H72.244V25.022h.02l.5-1.105h.764v-.462H62.6v-.945h-2.03v-.04c-.06-.121-.322-.04-.442-.1s-.04-.543.08-.663.06-.4.382-.422c.342-.02.322.5.362.7.04.181-.161.322-.08.442s.261-.1.322-.523a1.159,1.159,0,0,0-.161-.764c-.04-.161.161-.523.1-.784-.06-.241-.181-.342-.181-.462s.241.02.382-.121c.121-.141-.04-.322-.08-.422s.161-.281.2-.462-.221-.4-.543-.462c-.3-.06-.884,1.387-.985,1.668-.121.281-.482.04-.7.261-.121.141-.1.281-.06.5L58.618,21a2.356,2.356,0,0,0-1.97-1.306v-.623a.637.637,0,0,0,0-1.246v-.281a.714.714,0,0,0,.181-.08l1.025-1.025a.341.341,0,1,0-.482-.482l-.864.864-.864-.864a.341.341,0,0,0-.482.482l1.025,1.025a.3.3,0,0,0,.181.08v.281a.637.637,0,0,0,0,1.246V19.7A2.356,2.356,0,0,0,54.4,21l-.543-.141c.06-.221.08-.362-.06-.5-.221-.221-.583.02-.7-.261s-.683-1.728-.985-1.668-.563.3-.543.462c.04.181.221.362.2.462-.04.1-.221.281-.08.422.121.141.382.02.382.121s-.121.2-.181.462c-.06.241.141.623.1.784a1.538,1.538,0,0,0-.161.764c.06.422.241.643.322.523s-.121-.241-.08-.442c.04-.181.02-.7.362-.7.342.02.261.3.382.422s.2.6.08.663-.382-.02-.442.1v.04h-2.03v.945H39.485v.462h.764l.5,1.105h.02v1.467H38.139v.724l1.266,1.97h.623v1.467h-.744v.543h.784l.221.543H37.536V9.828s-4.22-.04-5.165,6.069v6.009h-.4V17.385l-1.909-.764-1.789.623V29.061H27.166v-3.4H25.3v-.7H22.845v5.667H21.559V23.012h-2.13v-.623H17.2v.663H14.846v6.29H13.64V24.981H12.253V23.474H10.425v-.8H8.958v1.246H6.465v1.427H4.858v1.166H1.2V44.878H148.513V31.754h-1.628ZM65.772,30.207a.266.266,0,0,1,.261-.261h2.572a.266.266,0,0,1,.261.261v7.456a.266.266,0,0,1-.261.261H66.034a.266.266,0,0,1-.261-.261Zm-4.9,0a.266.266,0,0,1,.261-.261H63.7a.266.266,0,0,1,.261.261v7.456a.266.266,0,0,1-.261.261H61.13a.266.266,0,0,1-.261-.261ZM59.2,21.062c.02.1.06.221.08.362a4.345,4.345,0,0,0,.281,1.146h-.744a1.957,1.957,0,0,0,.04-.482,2.108,2.108,0,0,0-.181-.884Zm-.4,8.561a.266.266,0,0,1,.261.261V38a.266.266,0,0,1-.261.261H54.156A.266.266,0,0,1,53.9,38V29.885a.266.266,0,0,1,.261-.261Zm-5.1-8.2c.02-.141.06-.261.08-.362l.5.141a2.246,2.246,0,0,0-.181.884,3.9,3.9,0,0,0,.04.482h-.744A4.119,4.119,0,0,0,53.694,21.424Zm-4.683,8.783a.266.266,0,0,1,.261-.261h2.572a.266.266,0,0,1,.261.261v7.456a.266.266,0,0,1-.261.261H49.273a.266.266,0,0,1-.261-.261Zm-4.9,0a.266.266,0,0,1,.261-.261h2.572a.266.266,0,0,1,.261.261v7.456a.266.266,0,0,1-.261.261H44.369a.266.266,0,0,1-.261-.261Z" transform="translate(3226.041 1516.1)"/>
    <path id="Path_365" data-name="Path 365" class="cls-3" d="M5.728,260.364a2.277,2.277,0,0,0,1.889-2.331c0-1.789-1.427-2.633-3.537-2.633H0v10.471H4.1c1.568,0,3.919-.422,3.939-2.834A2.676,2.676,0,0,0,5.728,260.364ZM.9,256.244H4.019c1.648,0,2.713.5,2.713,1.909C6.733,259.5,5.647,260,4.462,260H.9Zm3.035,8.783H.9v-4.18H4.381c1.045,0,2.773.241,2.773,2.09C7.135,264.866,5.366,265.027,3.939,265.027Z" transform="translate(3227 1311.949)"/>
    <path id="Path_366" data-name="Path 366" class="cls-4" d="M57.384,261.027h5.627v-.864H57.384v-3.919h6.069V255.4H56.5v10.471h7.054v-.844h-6.17Z" transform="translate(3181.855 1311.949)"/>
    <path id="Path_367" data-name="Path 367" class="cls-5" d="M116.158,258.515c0-2.331-2.01-3.115-3.839-3.115H108.3v10.471h.884V261.63H112.1l3.658,4.241h1.105l-3.718-4.3C114.651,261.369,116.158,260.525,116.158,258.515Zm-6.954,2.271v-4.542h3.2c1.367,0,2.874.5,2.874,2.251s-1.487,2.271-2.874,2.271h-3.2Z" transform="translate(3140.465 1311.949)"/>
    <path id="Path_368" data-name="Path 368" class="cls-6" d="M166.184,255.4H165.3v10.471h6.934v-.844h-6.049Z" transform="translate(3094.921 1311.949)"/>
    <rect id="Rectangle_1317" data-name="Rectangle 1317" class="cls-7" width="0.884" height="10.471" transform="translate(3269.968 1567.349)"/>
    <path id="Path_369" data-name="Path 369" class="cls-5" d="M245.877,263.459v.9L239,255.4h-.8v10.471h.884v-8.983l6.873,8.983h.8V255.4h-.884Z" transform="translate(3036.672 1311.949)"/>
    <path id="Path_370" data-name="Path 370" class="cls-8" d="M322.9,260.107a4.465,4.465,0,0,1,4.683-4.663,5.15,5.15,0,0,1,2.794.764v-.9a6.2,6.2,0,0,0-2.934-.7A5.294,5.294,0,0,0,322,260.107a5.231,5.231,0,0,0,5.446,5.306,6.33,6.33,0,0,0,3.035-.724V263.8a5.166,5.166,0,0,1-2.854.764A4.427,4.427,0,0,1,322.9,260.107Z" transform="translate(2969.714 1312.588)"/>
    <rect id="Rectangle_1318" data-name="Rectangle 1318" class="cls-9" width="0.884" height="10.471" transform="translate(3303.37 1567.349)"/>
    <path id="Path_371" data-name="Path 371" class="cls-10" d="M398.2,256.244h3.818v9.627h.884v-9.627h3.839V255.4H398.2Z" transform="translate(2908.827 1311.949)"/>
    <path id="Path_372" data-name="Path 372" class="cls-10" d="M453.162,260.987l-3.577-5.587H448.6l4.12,6.391v4.08h.884v-4.08l4.12-6.391h-.985Z" transform="translate(2868.556 1311.949)"/>
    <path id="Path_373" data-name="Path 373" class="cls-11" d="M537.577,260.183h-6.793V255.4H529.9v10.471h.884v-4.823h6.793v4.823h.884V255.4h-.884Z" transform="translate(2803.595 1311.949)"/>
    <path id="Path_374" data-name="Path 374" class="cls-12" d="M590.763,255.4,586.1,265.871h.965l1.266-2.814h5.909l1.246,2.814h.965L591.787,255.4Zm-2.11,6.813,2.472-5.587a1.552,1.552,0,0,1,.141-.322c.04.1.08.2.141.322l2.472,5.587Z" transform="translate(2758.69 1311.949)"/>
    <path id="Path_375" data-name="Path 375" class="cls-13" d="M651.984,255.4H651.1v10.471h6.954v-.844h-6.069Z" transform="translate(2706.753 1311.949)"/>
    <path id="Path_376" data-name="Path 376" class="cls-14" d="M700.584,255.4H699.7v10.471h6.934v-.844h-6.049Z" transform="translate(2667.92 1311.949)"/>
  </g>
</svg>
