<svg xmlns="http://www.w3.org/2000/svg" viewBox="118 -1041 191.25 80.335">
  <defs>
    <style>
      .cls-1 {
        fill: #fff;
      }
    </style>
  </defs>
  <g id="Symbol_3_3" data-name="Symbol 3 – 3" transform="translate(-6839 -4635)">
    <g id="Group_190" data-name="Group 190" transform="translate(6957.313 3594)">
      <g id="Group_189" data-name="Group 189" transform="translate(130.114 30.998)">
        <path id="Path_329" data-name="Path 329" class="cls-1" d="M557.095,152.8a.5.5,0,0,0-.495.495v5.522a.495.495,0,0,0,.99,0v-5.522A.479.479,0,0,0,557.095,152.8Z" transform="translate(-542.039 -143.995)"/>
        <path id="Path_330" data-name="Path 330" class="cls-1" d="M599.629,161a.728.728,0,0,0-.729.729V166.7a.729.729,0,0,0,1.459,0v-4.975A.728.728,0,0,0,599.629,161Z" transform="translate(-573.32 -150.06)"/>
        <path id="Path_331" data-name="Path 331" class="cls-1" d="M547.895,152.8a.5.5,0,0,0-.495.495v5.522a.495.495,0,0,0,.99,0v-5.522A.479.479,0,0,0,547.895,152.8Z" transform="translate(-535.235 -143.995)"/>
        <path id="Path_332" data-name="Path 332" class="cls-1" d="M589.629,161a.728.728,0,0,0-.729.729V166.7a.729.729,0,0,0,1.459,0v-4.975A.745.745,0,0,0,589.629,161Z" transform="translate(-565.925 -150.06)"/>
        <path id="Path_333" data-name="Path 333" class="cls-1" d="M538.795,152.8a.5.5,0,0,0-.495.495v5.522a.495.495,0,0,0,.99,0v-5.522A.5.5,0,0,0,538.795,152.8Z" transform="translate(-528.506 -143.995)"/>
        <path id="Path_334" data-name="Path 334" class="cls-1" d="M517.659,152.3a1.469,1.469,0,0,0-1.459,1.328h2.944A1.514,1.514,0,0,0,517.659,152.3Z" transform="translate(-512.162 -143.626)"/>
        <path id="Path_335" data-name="Path 335" class="cls-1" d="M516.1,158h0v4.194h2.97V158H516.1Z" transform="translate(-512.088 -147.841)"/>
        <path id="Path_336" data-name="Path 336" class="cls-1" d="M566.295,152.8a.5.5,0,0,0-.495.495v5.522a.495.495,0,0,0,.99,0v-5.522A.5.5,0,0,0,566.295,152.8Z" transform="translate(-548.842 -143.995)"/>
        <path id="Path_337" data-name="Path 337" class="cls-1" d="M676,158h0v4.194h2.97V158H676Z" transform="translate(-630.336 -147.841)"/>
        <path id="Path_338" data-name="Path 338" class="cls-1" d="M661.895,152.8a.5.5,0,0,0-.495.495v5.522a.495.495,0,0,0,.99,0v-5.522A.5.5,0,0,0,661.895,152.8Z" transform="translate(-619.54 -143.995)"/>
        <path id="Path_339" data-name="Path 339" class="cls-1" d="M677.559,152.3a1.469,1.469,0,0,0-1.459,1.328h2.944A1.514,1.514,0,0,0,677.559,152.3Z" transform="translate(-630.41 -143.626)"/>
        <path id="Path_340" data-name="Path 340" class="cls-1" d="M609.729,161a.728.728,0,0,0-.729.729V166.7a.729.729,0,0,0,1.459,0v-4.975A.764.764,0,0,0,609.729,161Z" transform="translate(-580.789 -150.06)"/>
        <path id="Path_341" data-name="Path 341" class="cls-1" d="M634.395,152.8a.5.5,0,0,0-.495.495v5.522a.495.495,0,0,0,.99,0v-5.522A.5.5,0,0,0,634.395,152.8Z" transform="translate(-599.203 -143.995)"/>
        <path id="Path_342" data-name="Path 342" class="cls-1" d="M652.695,152.8a.5.5,0,0,0-.495.495v5.522a.495.495,0,0,0,.99,0v-5.522A.479.479,0,0,0,652.695,152.8Z" transform="translate(-612.736 -143.995)"/>
        <path id="Path_343" data-name="Path 343" class="cls-1" d="M643.495,152.8a.5.5,0,0,0-.495.495v5.522a.495.495,0,0,0,.99,0v-5.522A.479.479,0,0,0,643.495,152.8Z" transform="translate(-605.933 -143.995)"/>
        <path id="Path_344" data-name="Path 344" class="cls-1" d="M552.537,127.518v-.912h-.417v-1.589h-.287v.391h-.286v.234h-.6v-2.11h.7c0-.808-1.641-1.459-3.673-1.459h0v-2.917a.1.1,0,1,0-.208,0v.469a1.078,1.078,0,0,1-.781.1,4.74,4.74,0,0,0-1.016-.078l.208,1.641s.208.13.729-.182a.79.79,0,0,1,.834-.026V122.1c-1.928.052-3.464.677-3.464,1.459h.7v2.11h-1.745V123.48a.078.078,0,0,0-.156,0v.339a.858.858,0,0,1-.573.078,3.017,3.017,0,0,0-.729-.052l.156,1.2s.156.1.547-.13a.666.666,0,0,1,.625-.026v.781h-2.032v.964h-1.459v-.469h-.339v-.443h-.339v.938h-2.865v-.469h-.391v-.443h-.339v.443h-.391v.469h-1.3v-1.433h-.287v-.886h-.417v-1.068c.391-.052.677-.26.677-.469,0-.234-.287-.417-.677-.469v-.469a.287.287,0,1,0-.573,0v.391c-.391.052-.677.26-.677.469,0,.234.286.417.677.469v1.068h-.443a4.926,4.926,0,0,0-9.69,0H521.8v-1.068c.391-.052.677-.26.677-.469,0-.234-.286-.417-.677-.469v-.391a.287.287,0,1,0-.573,0v.391c-.391.052-.677.26-.677.469,0,.234.287.417.677.469v1.068h-.417v.886h-.286v1.433h-1.3v-.469h-.469v-.443h-.339v.443h-.391v.469h-2.865v-.912h-.339v.443h-.339v.469h-1.459v-.964h-2.032v-.781a.592.592,0,0,1,.625.026c.391.234.547.13.547.13l.156-1.2a3.017,3.017,0,0,0-.729.052.858.858,0,0,1-.573-.078v-.339a.078.078,0,0,0-.156,0v2.188h-1.8v-2.11h.7c0-.781-1.537-1.433-3.464-1.459v-1.016a.79.79,0,0,1,.834.026c.521.313.729.182.729.182l.208-1.641a4.74,4.74,0,0,0-1.016.078,1.234,1.234,0,0,1-.781-.1V119.1a.1.1,0,1,0-.208,0v2.917h0c-2.032,0-3.673.651-3.673,1.459h.7v2.11h-.6v-.234h-.287v-.391h-.287v1.589h-.417v.912H500.7v.651h.469l.625,1.068v10.263h50.483V129.185l.625-1.068h.469v-.651h-.834Zm-46.341.156A1.469,1.469,0,0,1,507.655,129h-2.944A1.476,1.476,0,0,1,506.2,127.674Zm1.485,5.679h-2.97v-4.194h2.97Zm3.8.469a.495.495,0,1,1-.99,0V128.3a.495.495,0,0,1,.99,0Zm2.37,0a.495.495,0,1,1-.99,0V128.3a.495.495,0,0,1,.99,0Zm2.4,0a.495.495,0,1,1-.99,0V128.3a.495.495,0,0,1,.99,0Zm2.4,0a.495.495,0,1,1-.99,0V128.3a.495.495,0,0,1,.99,0Zm6.486,1.823a.729.729,0,1,1-1.459,0V130.67a.729.729,0,1,1,1.459,0Zm2.6,0a.729.729,0,0,1-1.459,0V130.67a.729.729,0,0,1,1.459,0Zm2.6,0a.729.729,0,0,1-1.459,0V130.67a.729.729,0,0,1,1.459,0Zm6.043-1.823a.495.495,0,1,1-.99,0V128.3a.495.495,0,0,1,.99,0Zm2.37,0a.495.495,0,1,1-.99,0V128.3a.495.495,0,0,1,.99,0Zm2.4,0a.495.495,0,1,1-.99,0V128.3a.495.495,0,0,1,.99,0Zm2.4,0a.495.495,0,1,1-.99,0V128.3a.495.495,0,0,1,.99,0Zm4.3-6.148A1.469,1.469,0,0,1,549.307,129h-2.943A1.514,1.514,0,0,1,547.848,127.674Zm1.485,5.679h-2.97v-4.194h2.97Z" transform="translate(-500.7 -119)"/>
      </g>
      <path id="Path_345" data-name="Path 345" class="cls-1" d="M230.876,96.752l1.641-2.553v-.938H229.1v-1.9h.026l.651-1.433h.99v-.6H216.6V88.1H213.97v-.052c-.078-.156-.417-.052-.573-.13s-.052-.7.1-.86.078-.521.495-.547c.443-.026.417.651.469.912.052.234-.208.417-.1.573s.339-.13.417-.677a1.5,1.5,0,0,0-.208-.99c-.052-.208.208-.677.13-1.016-.078-.313-.234-.443-.234-.6s.313.026.495-.156c.156-.182-.052-.417-.1-.547s.208-.365.26-.6-.287-.521-.7-.6c-.391-.078-1.146,1.8-1.276,2.162-.156.365-.625.052-.912.339-.156.182-.13.365-.078.651l-.7.182a3.054,3.054,0,0,0-2.553-1.693v-.808a.826.826,0,0,0,0-1.615V81.67a.925.925,0,0,0,.234-.1l1.328-1.328a.442.442,0,0,0-.625-.625l-1.12,1.12-1.12-1.12a.442.442,0,0,0-.625.625l1.328,1.328a.388.388,0,0,0,.234.1v.365a.826.826,0,0,0,0,1.615v.808a3.054,3.054,0,0,0-2.553,1.693l-.7-.182c.078-.287.1-.469-.078-.651-.287-.287-.755.026-.912-.339s-.886-2.24-1.276-2.162-.729.391-.7.6c.052.234.287.469.26.6-.052.13-.287.365-.1.547.156.182.495.026.495.156s-.156.26-.234.6c-.078.313.182.808.13,1.016a1.993,1.993,0,0,0-.208.99c.078.547.313.834.417.677s-.156-.313-.1-.573c.052-.234.026-.912.469-.912.443.026.339.391.495.547s.26.781.1.86-.495-.026-.573.13V88.1h-2.631v1.224H186.645v.6h.99l.651,1.433h.026v1.9H184.9V94.2l1.641,2.553h.808v1.9h-.964v.7H187.4l.469,1.2h-.156v5.47h-.625v4.194h43.293v-4.194h-.625v-5.47H229.6l.469-1.2h1.016v-.7h-.964v-1.9Zm-34.2,10.94a.345.345,0,0,1-.339.339H193a.345.345,0,0,1-.339-.339V98.028A.345.345,0,0,1,193,97.69h3.334a.345.345,0,0,1,.339.339Zm6.356,0a.345.345,0,0,1-.339.339h-3.334a.345.345,0,0,1-.339-.339V98.028a.345.345,0,0,1,.339-.339h3.334a.345.345,0,0,1,.339.339Zm2.058-21.047c.026-.182.078-.339.1-.469l.651.182a2.911,2.911,0,0,0-.234,1.146,5.062,5.062,0,0,0,.052.625H204.7A5.338,5.338,0,0,0,205.088,86.645Zm6.955,21.49a.345.345,0,0,1-.339.339h-6.017a.345.345,0,0,1-.339-.339V97.611a.345.345,0,0,1,.339-.339H211.7a.345.345,0,0,1,.339.339ZM211.73,88.13a2.536,2.536,0,0,0,.052-.625,2.732,2.732,0,0,0-.234-1.146l.651-.182c.026.13.078.287.1.469a5.631,5.631,0,0,0,.365,1.485Zm6.642,19.563a.345.345,0,0,1-.339.339H214.7a.345.345,0,0,1-.339-.339V98.028a.345.345,0,0,1,.339-.339h3.334a.345.345,0,0,1,.339.339Zm6.382,0a.345.345,0,0,1-.339.339h-3.334a.345.345,0,0,1-.339-.339V98.028a.345.345,0,0,1,.339-.339h3.334a.345.345,0,0,1,.339.339Z" transform="translate(-137.048 -58.773)"/>
      <path id="Path_346" data-name="Path 346" class="cls-1" d="M407.142,21.464a3.593,3.593,0,0,0-2.37-3.386V16.749h.443V16.2H404.3V15.056h-.156a.615.615,0,0,0-.391-.547V.182A.178.178,0,0,0,403.573,0h-.1a.178.178,0,0,0-.182.182V14.509a.639.639,0,0,0-.391.547h-.156V16.2h-.912v.547h.443v1.328a3.6,3.6,0,0,0,0,6.773v.7h-.886v.86h.755l-.521,25.267H405.4l-.521-25.267h.755v-.86h-.886v-.7A3.581,3.581,0,0,0,407.142,21.464Z" transform="translate(-296.043 0)"/>
      <rect id="Rectangle_1313" data-name="Rectangle 1313" class="cls-1" width="190.938" height="7.085" transform="translate(0 51.16)"/>
      <rect id="Rectangle_1314" data-name="Rectangle 1314" class="cls-1" width="190.938" height="3.543" transform="translate(0 59.964)"/>
      <path id="Path_347" data-name="Path 347" class="cls-1" d="M48.218,88.577V49.4s-5.47-.052-6.695,7.867v7.789H41V59.168l-2.475-.99-2.318.808V74.3H34.777V69.9H32.354v-.912H29.176v7.346H27.509V66.462H24.826v-.808H21.935v.86H18.887v8.153H17.324V69.015h-1.8V67.061h-2.37V66.019h-1.9v1.615H8.025v1.849H5.941v1.511H1.2V88.6H48.218Z" transform="translate(-1.2 -36.532)"/>
      <rect id="Rectangle_1315" data-name="Rectangle 1315" class="cls-1" width="6.721" height="11.149" transform="translate(45.585 41.287)"/>
      <path id="Path_348" data-name="Path 348" class="cls-1" d="M363,155.9V140.354h2.006V138.4h1.172v1.771h6.8v3.074h4.22V145.8h2.839v-2.657h3.074v2.423h1.068v-.886H385.4V143.3h7.111v1.381h1.068V146.5h1.355v-3.907h-.7v-1.719h3.725v-.886h1.589v.781h.834V155.9Z" transform="translate(-268.755 -102.348)"/>
      <path id="Path_349" data-name="Path 349" class="cls-1" d="M694,162.124V155.4h2.683v-4.116h1.433V149.1h1.771v1.355h2.475V151.5h2.11v10.628Z" transform="translate(-513.534 -110.261)"/>
    </g>
    <g id="Group_191" data-name="Group 191" transform="translate(6957 3660.32)">
      <path id="Path_350" data-name="Path 350" class="cls-1" d="M5.262,255.4c2.735,0,4.585,1.094,4.585,3.412A2.952,2.952,0,0,1,7.4,261.834a3.447,3.447,0,0,1,3,3.464c-.026,3.152-3.074,3.673-5.106,3.673H0V255.4Zm-.078,1.094H1.172v4.871H5.757c1.537,0,2.944-.651,2.944-2.4C8.7,257.145,7.32,256.494,5.184,256.494Zm.469,5.965H1.172v5.418H5.106c1.849,0,4.142-.182,4.142-2.683C9.247,262.772,7.007,262.459,5.653,262.459Z" transform="translate(0 -255.192)"/>
      <path id="Path_351" data-name="Path 351" class="cls-1" d="M65.513,255.326v1.094H57.646v5.08H64.94v1.094H57.646v5.184h8v1.094H56.5V255.3h9.013Z" transform="translate(-41.782 -255.118)"/>
      <path id="Path_352" data-name="Path 352" class="cls-1" d="M108.3,268.971V255.4h5.21c2.37,0,4.975,1.016,4.975,4.038,0,2.6-1.928,3.7-3.907,3.959l4.819,5.574h-1.433l-4.741-5.5h-3.777v5.5Zm1.172-6.59h4.142c1.771,0,3.725-.677,3.725-2.944s-1.928-2.917-3.725-2.917h-4.142v5.861Z" transform="translate(-80.089 -255.192)"/>
      <path id="Path_353" data-name="Path 353" class="cls-1" d="M166.446,255.4v12.477h7.841v1.094H165.3V255.4Z" transform="translate(-122.241 -255.192)"/>
      <path id="Path_354" data-name="Path 354" class="cls-1" d="M214.946,255.4v13.571H213.8V255.4Z" transform="translate(-158.108 -255.192)"/>
      <path id="Path_355" data-name="Path 355" class="cls-1" d="M238.2,268.971V255.4h1.042l8.909,11.618V255.4H249.3v13.571h-1.042l-8.909-11.644v11.644Z" transform="translate(-176.152 -255.192)"/>
      <path id="Path_356" data-name="Path 356" class="cls-1" d="M329.059,254.6a8.118,8.118,0,0,1,3.8.912v1.172a6.738,6.738,0,0,0-3.621-.99,5.8,5.8,0,0,0-6.069,6.043c-.026,3.907,3.152,5.783,6.121,5.783a6.7,6.7,0,0,0,3.7-.99v1.146a8.279,8.279,0,0,1-3.933.938A6.78,6.78,0,0,1,322,261.737,6.862,6.862,0,0,1,329.059,254.6Z" transform="translate(-238.123 -254.6)"/>
      <path id="Path_357" data-name="Path 357" class="cls-1" d="M381.12,255.4v13.571H380V255.4Z" transform="translate(-281.015 -255.192)"/>
      <path id="Path_358" data-name="Path 358" class="cls-1" d="M409.2,255.4v1.094h-4.975v12.477h-1.146V256.494H398.1V255.4Z" transform="translate(-294.4 -255.192)"/>
      <path id="Path_359" data-name="Path 359" class="cls-1" d="M453.94,268.971v-5.288L448.6,255.4h1.276l4.637,7.242,4.637-7.242h1.276l-5.34,8.284v5.288Z" transform="translate(-331.745 -255.192)"/>
      <path id="Path_360" data-name="Path 360" class="cls-1" d="M541,255.4v13.571h-1.146V262.72h-8.8v6.252H529.9V255.4h1.146v6.2h8.8v-6.2Z" transform="translate(-391.867 -255.192)"/>
      <path id="Path_361" data-name="Path 361" class="cls-1" d="M586.1,268.971l6.043-13.571h1.3l6.043,13.571h-1.25l-1.615-3.647h-7.658l-1.641,3.647Zm3.308-4.741h6.747l-3.2-7.242a2.015,2.015,0,0,0-.182-.417c-.052.13-.1.26-.182.417Z" transform="translate(-433.428 -255.192)"/>
      <path id="Path_362" data-name="Path 362" class="cls-1" d="M652.246,255.4v12.477h7.841v1.094H651.1V255.4Z" transform="translate(-481.496 -255.192)"/>
      <path id="Path_363" data-name="Path 363" class="cls-1" d="M700.846,255.4v12.477h7.841v1.094H699.7V255.4Z" transform="translate(-517.437 -255.192)"/>
    </g>
  </g>
</svg>
